<?xml version="1.0" encoding="UTF-8" standalone="no"?>
<!-- Created with Inkscape (http://www.inkscape.org/) -->

<svg
   width="3.5in"
   height="2in"
   viewBox="0 0 88.9 50.8"
   version="1.1"
   id="svg5"
   inkscape:version="1.1.1 (3bf5ae0d25, 2021-09-20)"
   sodipodi:docname="drawing.svg"
   xmlns:inkscape="http://www.inkscape.org/namespaces/inkscape"
   xmlns:sodipodi="http://sodipodi.sourceforge.net/DTD/sodipodi-0.dtd"
   xmlns="http://www.w3.org/2000/svg"
   xmlns:svg="http://www.w3.org/2000/svg">
  <sodipodi:namedview
     id="namedview7"
     pagecolor="#ffffff"
     bordercolor="#999999"
     borderopacity="1"
     inkscape:pageshadow="0"
     inkscape:pageopacity="0"
     inkscape:pagecheckerboard="0"
     inkscape:document-units="mm"
     showgrid="false"
     units="in"
     inkscape:zoom="1.4475093"
     inkscape:cx="153.71231"
     inkscape:cy="83.246441"
     inkscape:window-width="1366"
     inkscape:window-height="705"
     inkscape:window-x="-8"
     inkscape:window-y="-8"
     inkscape:window-maximized="1"
     inkscape:current-layer="layer1" />
  <defs
     id="defs2">
    <inkscape:path-effect
       effect="bspline"
       id="path-effect8369"
       is_visible="true"
       lpeversion="1"
       weight="33.333333"
       steps="2"
       helper_size="0"
       apply_no_weight="true"
       apply_with_weight="true"
       only_selected="false" />
  </defs>
  <g
     inkscape:label="Layer 1"
     inkscape:groupmode="layer"
     id="layer1">
    <g
       id="g11070"
       transform="matrix(1.2104744,0,0,1.2104744,-8.9785253,-9.0360777)">
      <path
         style="fill:#ffffff;stroke:#000000;stroke-width:0.3;stroke-linecap:round;stroke-miterlimit:4;stroke-dasharray:none"
         d="m 65.059999,19.033142 c -1.537231,-1.055326 -3.074691,-2.11081 -7.651679,0.403406 -4.576987,2.514217 -12.192858,8.598189 -10.223032,9.369355 1.969825,0.771167 13.524941,-3.770392 25.080138,-8.311983"
         id="path8367"
         inkscape:path-effect="#path-effect8369"
         inkscape:original-d="m 65.059999,19.033142 c -1.53727,-1.05527 -3.07473,-2.110754 -4.612535,-3.166557 -7.615899,6.084471 -15.23177,12.168443 -22.848068,18.25228 11.555831,-4.541506 23.110946,-9.083067 34.66603,-13.624945"
         sodipodi:nodetypes="cccc" />
      <path
         style="fill:#000000;stroke-width:0.587116"
         d="m 59.970107,37.94024 c -0.766376,-0.302357 -1.319172,-1.267902 -1.845337,-3.223143 -0.923786,-3.432817 -0.07225,-7.457973 2.378148,-11.241438 0.921758,-1.423212 1.637197,-3.200157 1.589873,-3.948781 -0.119365,-1.888292 -0.412987,-1.583598 -1.884973,1.956354 -1.594585,3.834651 -3.023768,4.699344 -3.673345,2.222481 -0.559655,-2.133985 -0.229409,-7.899456 0.470922,-8.221431 0.697485,-0.320669 0.7366,0.01708 0.391233,3.377873 -0.652626,6.350771 0.623388,6.230668 2.937954,-0.276546 1.738265,-4.886985 2.39141,-5.305776 2.556878,-1.639455 0.07414,1.642875 0.254003,2.119174 0.719425,1.905194 1.591976,-0.73191 8.901783,-3.098614 8.321372,-2.512545 0,0 -0.04217,0.481906 -0.452529,0.45694 -0.277503,-0.01688 -0.683704,0.166829 -1.067459,0.335377 -0.325299,0.142878 -0.626149,0.262375 -0.905599,0.369755 -2.030944,0.780397 -4.446671,1.532267 -4.446671,1.532267 l -2.010496,2.361633 0.359777,5.869229 c 0.497741,8.119966 -0.676796,11.766083 -3.439173,10.676234 z m 2.443291,-3.272069 c 0.266865,-0.727326 0.400488,-2.629894 0.296938,-4.227922 -0.10355,-1.598029 -0.251002,-3.917305 -0.327679,-5.153944 -0.195013,-3.145219 -1.186042,-2.511794 -2.753327,1.759811 -1.764325,4.808643 -0.954291,10.440109 1.349371,9.381003 0.522218,-0.240097 1.167832,-1.031617 1.434697,-1.758948 z M 72.712383,15.546465 c 0.768754,1.574868 0,0 0,0 z M 17.947735,42.29829 c -1.421629,-0.927108 -2.562071,-1.22739 -3.044421,-0.801592 -1.072838,0.947055 -1.254214,-0.18771 -0.196455,-1.229077 0.473401,-0.466057 0.789213,-1.113133 0.70181,-1.43793 -0.08741,-0.324793 0.239086,-0.773518 0.725534,-0.997161 0.486443,-0.223632 1.204749,-1.354374 1.596235,-2.512742 0.391484,-1.158366 1.018109,-2.246945 1.392503,-2.419074 0.671425,-0.308686 0.81301,0.313335 1.26693,5.565959 0.195789,2.265605 1.09247,2.027004 3.100401,-0.824996 2.178997,-3.094977 2.587276,-3.391413 1.953883,-1.418665 -0.258467,0.805026 -1.424005,2.532057 -2.59008,3.837849 -1.166074,1.30579 -2.060333,2.596379 -1.987246,2.867974 0.27444,1.019824 -0.716702,0.805734 -2.919094,-0.630545 z m 1.49168,-3.567615 c -0.360626,-3.06124 -0.881767,-3.409178 -1.713011,-1.143658 -0.538044,1.466435 -0.49283,1.963107 0.260788,2.864657 1.322752,1.582404 1.77784,1.04309 1.452223,-1.720999 z m 7.696916,1.520044 c -0.413678,-0.259302 -2.619322,-15.685713 -2.769061,-19.36699 -0.08362,-2.055329 0.142492,-2.911705 0.855242,-3.239392 1.946063,-0.8947 2.518428,3.150112 1.917513,13.550833 -0.04345,0.751817 0.157585,0.671757 1.013253,-0.403507 1.374592,-1.727438 1.77373,-1.420778 3.152389,2.422023 1.10211,3.071956 1.179922,3.144755 2.535245,2.37171 1.795636,-1.024175 5.466123,-11.831938 6.13211,-7.987595 0.626335,3.615498 2.298744,3.910423 3.153885,3.517274 0.513374,-0.236013 1.696647,-1.748123 2.629498,-3.360227 1.317876,-2.277485 3.332234,1.659226 5.939822,-0.07876 1.049857,-0.699726 2.367985,-2.1572 2.929194,-3.238819 1.261546,-2.431412 1.684476,-1.449121 0.460297,1.069076 -1.836824,3.778394 -6.397406,5.500168 -7.151014,2.69974 -0.300218,-1.115617 -0.496343,-0.970077 -2.506726,1.86011 -1.199565,1.688734 -2.546175,3.056959 -2.992464,3.040516 -0.979751,-0.0361 -3.0388,-5.893116 -4.396581,-2.160803 -2.299298,3.063514 -1.797482,4.502651 -4.155349,6.239838 l -1.703659,1.255189 -0.604265,-2.245474 c -0.332346,-1.23501 -1.036792,-2.914571 -1.565436,-3.732354 l -0.961163,-1.486886 -0.804635,2.02815 c -0.442545,1.115481 -0.736045,3.218212 -0.652216,4.672733 0.155222,2.693062 0.113167,2.930334 -0.455879,2.573615 z M 26.690684,22.305962 c -0.293366,-3.234066 -1.294609,-4.775641 -1.55069,-2.387544 -0.213565,1.991594 0.363284,6.148765 0.899877,6.485125 0.741658,0.464901 0.947262,-0.829582 0.650813,-4.097581 z"
         id="path4332"
         sodipodi:nodetypes="sssscssssssssssccsssssssssssssssssssssssscsscssscssssssscssssccsscsscsssss" />
    </g>
  </g>
</svg>
